# xmcd
#
# Track frame offsets:
#	150
#	19155
#	34735
#	54740
#	73045
#	88012
#	99455
#	113452
#	141290
#	156017
#	170045
#
# Disc length: 2662 seconds
#
# Revision: 2
# Processed by: cddbd v1.4PL0 Copyright (c) Steve Scherf et al.
# Submitted via: audiograbber 1.80.04
#
DISCID=900a640b
DTITLE=Richard Abel - Instrumental Memories Vol 2
DYEAR=1997
DGENRE=Instrumental
TTITLE0=Le Temps Qu'il Nous Reste
TTITLE1=Dr. Zhivago - Lara's Theme
TTITLE2=Sérénade De Schubert - Shubert's Serenade
TTITLE3=Les Oiseaux Se Cachent Pour Mourir - The Thorn Birds
TTITLE4=Marina
TTITLE5=The Entertainer
TTITLE6=Spanish Eyes
TTITLE7=Pot-Pourri - Medley 
TTITLE8=Lac De Côme - Lake Como
TTITLE9=La Paloma
TTITLE10=Le Danube Bleu - Blue Danube
EXTD=*FIXED*
EXTT0=
EXTT1=
EXTT2=
EXTT3=
EXTT4=
EXTT5=
EXTT6=
EXTT7=
EXTT8=
EXTT9=
EXTT10=
PLAYORDER=
